# xmcd
#
# Track frame offsets:
#	150
#	28747
#	54931
#	78564
#	105961
#	130508
#	152433
#	178214
#	199263
#	222346
#	243543
#	267288
#
# Disc length: 3894 seconds
#
# Revision: 1
# Processed by: cddbd v1.5.2PL0 Copyright (c) Steve Scherf et al.
# Submitted via: audiograbber 1.83.01
#
DISCID=9e0f340c
DTITLE=Tom Rob Smith - CD5 Kolyma
DYEAR=2009
DGENRE=Hörbuch
TTITLE0=46 - Kolyma
TTITLE1=47 - Kolyma
TTITLE2=48 - Kolyma
TTITLE3=49 -  Kolyma
TTITLE4=50 - Kolyma
TTITLE5=51 - Kolyma
TTITLE6=52 - Kolyma
TTITLE7=53 - Kolyma
TTITLE8=54 - Kolyma
TTITLE9=55 - Kolyma
TTITLE10=56 - Kolyma
TTITLE11=57 - Kolyma
EXTD=
EXTT0=
EXTT1=
EXTT2=
EXTT3=
EXTT4=
EXTT5=
EXTT6=
EXTT7=
EXTT8=
EXTT9=
EXTT10=
EXTT11=
PLAYORDER=
